<svg xmlns="http://www.w3.org/2000/svg" viewBox="0 0 790.6 256.06"><defs><style>.cls-1{fill:#fff;}.cls-2{fill:#faa307;}</style></defs><title>luchin-blanco-concept</title><g id="Capa_2" data-name="Capa 2"><g id="Capa_1-2" data-name="Capa 1"><path class="cls-1" d="M43.35,48.61V63.78H0V2H19V48.61Z"/><path class="cls-1" d="M95.76,63.78H78.55a30.73,30.73,0,0,1-.64-6.43Q73,64.73,63.1,64.73q-8.15,0-12.21-4.16a13.34,13.34,0,0,1-4-9.56q0-7.29,6.64-11.8T77,33.79v-1c0-2-.46-3.37-1.38-4a7,7,0,0,0-4.06-1c-4.16,0-6.49,1.68-7,5L48.11,31.21q3.53-14.45,24-14.45A44.21,44.21,0,0,1,82.4,17.87a17.15,17.15,0,0,1,7.38,3.47,12.07,12.07,0,0,1,3.65,5q.93,2.63.93,10.1V54.81A25.52,25.52,0,0,0,95.76,63.78ZM77,42.22Q65.46,43.44,65.46,49.6q0,4.17,4.57,4.17A7.4,7.4,0,0,0,75,52.05q2-1.72,2-7.61Z"/><path class="cls-1" d="M146.81,41.31V63.78H127.56V2H154q9.87,0,15,2.26a18.24,18.24,0,0,1,8.15,6.93,18.87,18.87,0,0,1,3,10.47A18.11,18.11,0,0,1,174,35.88q-6.15,5.43-16.44,5.43ZM146.54,28h6.34q8.38,0,8.38-6.16,0-5.8-7.74-5.8h-7Z"/><path class="cls-1" d="M232.11,63.78H214.9a30.07,30.07,0,0,1-.64-6.43q-4.89,7.38-14.81,7.38-8.14,0-12.21-4.16A13.34,13.34,0,0,1,183.19,51q0-7.29,6.64-11.8t23.53-5.42v-1c0-2-.46-3.37-1.38-4a7,7,0,0,0-4.06-1q-6.25,0-7,5l-16.49-1.54q3.53-14.45,24-14.45a44.21,44.21,0,0,1,10.24,1.11,17.15,17.15,0,0,1,7.38,3.47,12.07,12.07,0,0,1,3.65,5q.93,2.63.93,10.1V54.81A25.3,25.3,0,0,0,232.11,63.78ZM213.36,42.22q-11.55,1.22-11.55,7.38,0,4.17,4.57,4.17a7.4,7.4,0,0,0,4.94-1.72q2-1.72,2-7.61Z"/><path class="cls-1" d="M257.39,63.78H240.08V17.71h15v9.51q2.58-10.37,12-10.37a26,26,0,0,1,2.62.18V33.11a14.87,14.87,0,0,0-3.39-.45q-9,0-9,10Z"/><path class="cls-1" d="M292.77,63.78H275.46V17.71h15v9.51q2.58-10.37,12-10.37a26,26,0,0,1,2.62.18V33.11a14.87,14.87,0,0,0-3.39-.45q-9,0-9,10Z"/><path class="cls-1" d="M328.92,0V14.31H310.84V0Zm0,17.71V63.78H310.84V17.71Z"/><path class="cls-1" d="M356.23,2V63.78h-17.8V2Z"/><path class="cls-1" d="M383.55,2V63.78H365.74V2Z"/><path class="cls-1" d="M439.49,63.78H422.28a30.07,30.07,0,0,1-.64-6.43q-4.89,7.38-14.81,7.38-8.16,0-12.21-4.16A13.34,13.34,0,0,1,390.57,51q0-7.29,6.63-11.8t23.54-5.42v-1c0-2-.46-3.37-1.38-4a7,7,0,0,0-4.06-1q-6.26,0-7,5l-16.49-1.54q3.53-14.45,24.05-14.45a44.27,44.27,0,0,1,10.24,1.11,17.15,17.15,0,0,1,7.38,3.47,12.07,12.07,0,0,1,3.65,5q.93,2.63.93,10.1V54.81A25.3,25.3,0,0,0,439.49,63.78ZM420.74,42.22q-11.55,1.22-11.55,7.38,0,4.17,4.57,4.17a7.4,7.4,0,0,0,4.94-1.72q2-1.72,2-7.61Z"/><path class="cls-1" d="M515.64,63.78H498.7V57.67q-3.76,7.06-12.41,7.06a15.75,15.75,0,0,1-12.94-6.23q-5-6.22-5-18.09,0-11.1,5-17.62a15.77,15.77,0,0,1,13.18-6.53,14.18,14.18,0,0,1,11.28,5.21V2h17.8Zm-17.8-29.62q0-6.21-5.12-6.21-3.59,0-4.69,3.94a36.06,36.06,0,0,0-1.11,9.65q0,11.19,5.71,11.19A4.68,4.68,0,0,0,496.32,51c1-1.18,1.52-3,1.52-5.39Z"/><path class="cls-1" d="M555.59,47.25l16.85,1.13A19.83,19.83,0,0,1,564.81,60q-6.13,4.78-16.6,4.78-11.64,0-18.57-6.72a22.3,22.3,0,0,1-6.93-16.7,24.2,24.2,0,0,1,6.83-17.44q6.84-7.11,18.26-7.11,11.06,0,17.87,6.7t6.82,18.26c0,.63,0,1.51,0,2.63H541.59c.06,2.9.58,5,1.54,6.45s2.81,2.11,5.53,2.11Q554.56,52.91,555.59,47.25Zm-1.22-12c0-3.11-.66-5.2-1.87-6.28a6.65,6.65,0,0,0-4.54-1.6q-6.4,0-6.41,7.88Z"/><path class="cls-1" d="M122.62,210.66v42.72H.57V79.31H54V210.66Z"/><path class="cls-1" d="M264.05,123.69V253.38H217V232.09q-10.34,24-40.3,24-18.49,0-28.63-10.26t-10.14-29.4V123.69H188.8v81.62q0,7.65,2.11,10.77t8.22,3.13a13.41,13.41,0,0,0,10.59-4.66q4.08-4.65,4.08-13.07V123.69Z"/><path class="cls-1" d="M369,201.1l43.36,3.7q-3.06,22.69-19.06,37t-42.53,14.28q-29.72,0-48.27-18.68t-18.56-47.89q0-29.84,18.43-49.16T350.25,121q26.14,0,42.6,14.6a55.69,55.69,0,0,1,18.87,36.92l-44.5,3.7q-2.81-20.53-15.56-20.53-8.16,0-11.93,7.46t-3.76,26q0,15.94,3.76,23.59t13.08,7.65Q366.44,220.35,369,201.1Z"/><path class="cls-1" d="M558,253.38H507.12v-78c0-7.15-.79-12.05-2.35-14.73s-4.59-4-9.07-4a14,14,0,0,0-9.08,3.12c-2.58,2.09-4.08,4.23-4.5,6.44s-.64,6.85-.64,13.9v73.33H430.6V79.31h50.88V139q13.77-18,36-18a46.92,46.92,0,0,1,19.7,3.89,33.19,33.19,0,0,1,13.07,10,36.12,36.12,0,0,1,6.18,11.86Q558,152.51,558,169Z"/><path class="cls-1" d="M635.79,73.82v40.3H584.91V73.82Zm0,49.87V253.38H584.91V123.69Z"/><path class="cls-1" d="M789.21,253.38H738.32V171.77q0-10.08-3.12-12.88a11.3,11.3,0,0,0-7.84-2.81q-13.9,0-13.9,19.38v77.92H662.57V123.69h47.19v18.36q10.46-21,37.36-21,14.16,0,23.91,5.42t14,14q4.2,8.61,4.21,29.9Z"/><rect class="cls-2" x="585.6" y="33.46" width="205" height="25"/></g></g></svg>